<svg style="height: 512px; width: 512px;" xmlns="http://www.w3.org/2000/svg" viewBox="0 0 512 512"><g class="" style="" transform="translate(0,0)"><g><path d="M239.125 97.438C231.04 97.701 224.127 100.924 217 106.5C206.864 114.43 197.178 127.653 188.094 142.97C176.034 163.303 165.392 186.957 152.906 206.656L154.062 207.376C153.644 208.056 153.679 207.996 153.812 208.75C153.946 209.504 154.579 211.104 156.219 213.25C159.496 217.543 166.561 223.46 176.155 229.406C195.343 241.296 224.445 253.896 254.968 264.312C285.488 274.73 317.568 283.056 342.842 286.937C355.479 288.877 366.442 289.69 374.248 289.25C381.078 288.865 384.818 286.876 385.342 286.78C387.655 274.04 390.462 260.507 392.779 246.75C398.099 215.18 400.097 183.65 392.093 167.562C384.613 152.524 374.476 146.872 363.063 145.187C356.051 144.153 348.526 145.119 341.436 147.157C350.219 152.617 359.613 156.833 370.03 158.781L366.594 177.157C336.894 171.603 315.344 152.617 297.25 135.157C279.157 117.697 263.82 102.145 250.094 98.72C246.78 97.892 243.684 97.484 240.75 97.438C240.208 97.424 239.667 97.424 239.125 97.438Z" class="" fill="#f5a623" fill-opacity="1"></path><path d="M51.72 172.156C48.155 172.233 44.977 172.643 42.188 173.376C31.03 176.302 24.481 182.796 20.906 200.719C15.308 228.785 23.221 253.017 40.844 275.593C58.466 298.169 86.087 318.423 118.469 335.53C180.716 368.417 260.039 389.583 317.624 398.72L325.218 380.656L329.56 370.376L338.904 376.438L393.154 411.5C425.53 413.815 453.304 409.672 470.934 400.937C479.954 396.469 486.23 390.961 489.874 384.875C493.516 378.789 494.877 372.005 493.311 363.155C488.865 338.035 480.893 323.555 469.936 313.845C458.978 304.133 444.108 298.72 424.623 294.625C418.171 293.269 411.221 292.062 403.873 290.875C401.053 307.08 399.061 320.922 399.685 329.219C400.101 334.749 397.165 340.761 393.06 343.936C388.956 347.112 384.312 348.471 379.217 349.343C369.027 351.086 356.324 350.521 341.309 348.593C311.279 344.736 272.489 334.976 235.184 322.218C197.88 309.458 162.282 293.853 138.497 277.31C126.605 269.04 117.424 260.722 112.684 250.53C110.314 245.433 109.219 239.586 110.404 233.842C111.587 228.098 114.938 222.932 119.56 218.748C125.153 213.685 130.723 206.12 136.34 197.123C120.582 190.211 105.985 184.303 92.872 179.998C76.455 174.608 62.408 171.923 51.716 172.154Z" class="" fill="#f5a623" fill-opacity="1"></path><path d="M140.688 223.626C137.945 226.872 135.085 229.886 132.094 232.594C129.671 234.787 128.948 236.364 128.688 237.624C128.428 238.886 128.53 240.301 129.625 242.656C131.815 247.366 138.662 254.648 149.188 261.969C170.238 276.609 204.928 292.119 241.218 304.529C277.51 316.942 315.616 326.425 343.688 330.029C357.723 331.833 369.374 332.049 376.063 330.905C378.793 330.438 380.325 329.805 381.031 329.435C380.641 322.808 381.134 315.363 382.126 307.312C379.926 307.599 377.659 307.772 375.313 307.905C365.358 308.467 353.435 307.469 340.001 305.405C313.133 301.279 280.357 292.723 248.938 281.999C217.52 271.275 187.612 258.479 166.313 245.279C155.663 238.681 147.117 232.109 141.376 224.593C141.136 224.277 140.92 223.945 140.688 223.623Z" class="selected" fill="#d0021b" fill-opacity="1"></path></g></g></svg>